
      <svg width="300" height="140" viewBox="0 0 300 140" xmlns="http://www.w3.org/2000/svg" role="img">
          <style>.title{font-size:14px;font-weight:600;fill:#24292e} .legend-text{font-family:-apple-system,BlinkMacSystemFont,'Segoe UI',Helvetica,Arial,sans-serif;font-size:12px;dominant-baseline:middle;fill:#586069}</style>
          <rect width="100%" height="100%" fill="#ffffff" rx="12" stroke="#e1e4e8"/>
          <text x="16" y="28" class="title">Most Used Languages</text>
          <rect x="16" y="45" height="10" width="268" rx="5" fill="#eaecef"/>
          <defs><clipPath id="colored-bar-clip"><rect x="16" y="45" height="10" width="264.248" rx="5"/></clipPath></defs>
          <g clip-path="url(#colored-bar-clip)"><rect x="16" y="45" height="10" width="120.33200000000001" fill="#336790"/><rect x="136.332" y="45" height="10" width="67.536" fill="#b07219"/><rect x="203.868" y="45" height="10" width="33.232" fill="#e38c00"/><rect x="237.1" y="45" height="10" width="23.584000000000003" fill="#3178c6"/><rect x="260.68399999999997" y="45" height="10" width="16.884" fill="#f1e05a"/><rect x="277.568" y="45" height="10" width="2.68" fill="#3572A5"/></g>
          <g><g transform="translate(16, 75)"><circle r="5" fill="#336790"/><text x="10" class="legend-text">PLpgSQL <tspan class="legend-percent">44.9%</tspan></text></g><g transform="translate(160, 75)"><circle r="5" fill="#b07219"/><text x="10" class="legend-text">Java <tspan class="legend-percent">25.2%</tspan></text></g><g transform="translate(16, 95)"><circle r="5" fill="#e38c00"/><text x="10" class="legend-text">TSQL <tspan class="legend-percent">12.4%</tspan></text></g><g transform="translate(160, 95)"><circle r="5" fill="#3178c6"/><text x="10" class="legend-text">TypeScript <tspan class="legend-percent">8.8%</tspan></text></g><g transform="translate(16, 115)"><circle r="5" fill="#f1e05a"/><text x="10" class="legend-text">JavaScript <tspan class="legend-percent">6.3%</tspan></text></g><g transform="translate(160, 115)"><circle r="5" fill="#3572A5"/><text x="10" class="legend-text">Python <tspan class="legend-percent">1.0%</tspan></text></g></g>
      </svg>