
      <svg width="300" height="140" viewBox="0 0 300 140" xmlns="http://www.w3.org/2000/svg" role="img">
          <style>.title{font-size:14px;font-weight:600;fill:#c9d1d9} .legend-text{font-family:-apple-system,BlinkMacSystemFont,'Segoe UI',Helvetica,Arial,sans-serif;font-size:12px;dominant-baseline:middle;fill:#c9d1d9}</style>
          <rect width="100%" height="100%" fill="#0d1117" rx="12" stroke="#30363d"/>
          <text x="16" y="28" class="title">Most Used Languages</text>
          <rect x="16" y="45" height="10" width="268" rx="5" fill="#21262d"/>
          <defs><clipPath id="colored-bar-clip"><rect x="16" y="45" height="10" width="221.368" rx="5"/></clipPath></defs>
          <g clip-path="url(#colored-bar-clip)"><rect x="16" y="45" height="10" width="57.888000000000005" fill="#F05138"/><rect x="73.888" y="45" height="10" width="52.79599999999999" fill="#336790"/><rect x="126.684" y="45" height="10" width="36.984" fill="#3178c6"/><rect x="163.668" y="45" height="10" width="29.748" fill="#b07219"/><rect x="193.416" y="45" height="10" width="26.8" fill="#41b883"/><rect x="220.216" y="45" height="10" width="17.152" fill="#A97BFF"/></g>
          <g><g transform="translate(16, 75)"><circle r="5" fill="#F05138"/><text x="10" class="legend-text">Swift <tspan class="legend-percent">21.6%</tspan></text></g><g transform="translate(160, 75)"><circle r="5" fill="#336790"/><text x="10" class="legend-text">PLpgSQL <tspan class="legend-percent">19.7%</tspan></text></g><g transform="translate(16, 95)"><circle r="5" fill="#3178c6"/><text x="10" class="legend-text">TypeScript <tspan class="legend-percent">13.8%</tspan></text></g><g transform="translate(160, 95)"><circle r="5" fill="#b07219"/><text x="10" class="legend-text">Java <tspan class="legend-percent">11.1%</tspan></text></g><g transform="translate(16, 115)"><circle r="5" fill="#41b883"/><text x="10" class="legend-text">Vue <tspan class="legend-percent">10.0%</tspan></text></g><g transform="translate(160, 115)"><circle r="5" fill="#A97BFF"/><text x="10" class="legend-text">Kotlin <tspan class="legend-percent">6.4%</tspan></text></g></g>
      </svg>