
      <svg width="300" height="140" viewBox="0 0 300 140" xmlns="http://www.w3.org/2000/svg" role="img">
          <style>.title{font-size:14px;font-weight:600;fill:#24292e} .legend-text{font-family:-apple-system,BlinkMacSystemFont,'Segoe UI',Helvetica,Arial,sans-serif;font-size:12px;dominant-baseline:middle;fill:#586069}</style>
          <rect width="100%" height="100%" fill="#ffffff" rx="12" stroke="#e1e4e8"/>
          <text x="16" y="28" class="title">Most Used Languages</text>
          <rect x="16" y="45" height="10" width="268" rx="5" fill="#eaecef"/>
          <defs><clipPath id="colored-bar-clip"><rect x="16" y="45" height="10" width="266.66" rx="5"/></clipPath></defs>
          <g clip-path="url(#colored-bar-clip)"><rect x="16" y="45" height="10" width="146.86399999999998" fill="#3178c6"/><rect x="162.86399999999998" y="45" height="10" width="87.10000000000001" fill="#f1e05a"/><rect x="249.964" y="45" height="10" width="14.203999999999999" fill="#e34c26"/><rect x="264.168" y="45" height="10" width="8.576" fill="#3572A5"/><rect x="272.744" y="45" height="10" width="8.308" fill="#563d7c"/><rect x="281.052" y="45" height="10" width="1.608" fill="#41b883"/></g>
          <g><g transform="translate(16, 75)"><circle r="5" fill="#3178c6"/><text x="10" class="legend-text">TypeScript <tspan class="legend-percent">54.8%</tspan></text></g><g transform="translate(160, 75)"><circle r="5" fill="#f1e05a"/><text x="10" class="legend-text">JavaScript <tspan class="legend-percent">32.5%</tspan></text></g><g transform="translate(16, 95)"><circle r="5" fill="#e34c26"/><text x="10" class="legend-text">HTML <tspan class="legend-percent">5.3%</tspan></text></g><g transform="translate(160, 95)"><circle r="5" fill="#3572A5"/><text x="10" class="legend-text">Python <tspan class="legend-percent">3.2%</tspan></text></g><g transform="translate(16, 115)"><circle r="5" fill="#563d7c"/><text x="10" class="legend-text">CSS <tspan class="legend-percent">3.1%</tspan></text></g><g transform="translate(160, 115)"><circle r="5" fill="#41b883"/><text x="10" class="legend-text">Vue <tspan class="legend-percent">0.6%</tspan></text></g></g>
      </svg>