
    <svg width="300" height="235" viewBox="0 0 300 235" xmlns="http://www.w3.org/2000/svg" role="img">
      <style>.title{font-size:14px;font-weight:600;fill:#24292e} .lang-name{font-family:-apple-system,BlinkMacSystemFont,'Segoe UI',Helvetica,Arial,sans-serif;font-size:12px;fill:#586069}</style>
      <rect width="100%" height="100%" fill="#ffffff" rx="12" stroke="#e1e4e8"/>
      <text x="16" y="28" class="title">Most Used Languages</text>
      <g>
      <text x="16" y="55" class="lang-name">TypeScript</text>
      <text x="284" y="55" class="lang-name" text-anchor="end">54.8%</text>
      <rect x="16" y="62" width="268" height="8" rx="4" fill="#eaecef"/>
      <rect x="16" y="62" width="146.86399999999998" height="8" rx="4" fill="#3178c6"/>
      <text x="16" y="85" class="lang-name">JavaScript</text>
      <text x="284" y="85" class="lang-name" text-anchor="end">32.5%</text>
      <rect x="16" y="92" width="268" height="8" rx="4" fill="#eaecef"/>
      <rect x="16" y="92" width="87.10000000000001" height="8" rx="4" fill="#f1e05a"/>
      <text x="16" y="115" class="lang-name">HTML</text>
      <text x="284" y="115" class="lang-name" text-anchor="end">5.3%</text>
      <rect x="16" y="122" width="268" height="8" rx="4" fill="#eaecef"/>
      <rect x="16" y="122" width="14.203999999999999" height="8" rx="4" fill="#e34c26"/>
      <text x="16" y="145" class="lang-name">Python</text>
      <text x="284" y="145" class="lang-name" text-anchor="end">3.2%</text>
      <rect x="16" y="152" width="268" height="8" rx="4" fill="#eaecef"/>
      <rect x="16" y="152" width="8.576" height="8" rx="4" fill="#3572A5"/>
      <text x="16" y="175" class="lang-name">CSS</text>
      <text x="284" y="175" class="lang-name" text-anchor="end">3.1%</text>
      <rect x="16" y="182" width="268" height="8" rx="4" fill="#eaecef"/>
      <rect x="16" y="182" width="8.308" height="8" rx="4" fill="#563d7c"/>
      <text x="16" y="205" class="lang-name">Vue</text>
      <text x="284" y="205" class="lang-name" text-anchor="end">0.6%</text>
      <rect x="16" y="212" width="268" height="8" rx="4" fill="#eaecef"/>
      <rect x="16" y="212" width="1.608" height="8" rx="4" fill="#41b883"/></g>
    </svg>