
    <svg width="300" height="235" viewBox="0 0 300 235" xmlns="http://www.w3.org/2000/svg" role="img">
      <style>.title{font-size:14px;font-weight:600;fill:#24292e} .lang-name{font-family:-apple-system,BlinkMacSystemFont,'Segoe UI',Helvetica,Arial,sans-serif;font-size:12px;fill:#586069}</style>
      <rect width="100%" height="100%" fill="#ffffff" rx="12" stroke="#e1e4e8"/>
      <text x="16" y="28" class="title">Most Used Languages</text>
      <g>
      <text x="16" y="55" class="lang-name">PLpgSQL</text>
      <text x="284" y="55" class="lang-name" text-anchor="end">44.9%</text>
      <rect x="16" y="62" width="268" height="8" rx="4" fill="#eaecef"/>
      <rect x="16" y="62" width="120.33200000000001" height="8" rx="4" fill="#336790"/>
      <text x="16" y="85" class="lang-name">Java</text>
      <text x="284" y="85" class="lang-name" text-anchor="end">25.2%</text>
      <rect x="16" y="92" width="268" height="8" rx="4" fill="#eaecef"/>
      <rect x="16" y="92" width="67.536" height="8" rx="4" fill="#b07219"/>
      <text x="16" y="115" class="lang-name">TSQL</text>
      <text x="284" y="115" class="lang-name" text-anchor="end">12.4%</text>
      <rect x="16" y="122" width="268" height="8" rx="4" fill="#eaecef"/>
      <rect x="16" y="122" width="33.232" height="8" rx="4" fill="#e38c00"/>
      <text x="16" y="145" class="lang-name">TypeScript</text>
      <text x="284" y="145" class="lang-name" text-anchor="end">8.8%</text>
      <rect x="16" y="152" width="268" height="8" rx="4" fill="#eaecef"/>
      <rect x="16" y="152" width="23.584000000000003" height="8" rx="4" fill="#3178c6"/>
      <text x="16" y="175" class="lang-name">JavaScript</text>
      <text x="284" y="175" class="lang-name" text-anchor="end">6.3%</text>
      <rect x="16" y="182" width="268" height="8" rx="4" fill="#eaecef"/>
      <rect x="16" y="182" width="16.884" height="8" rx="4" fill="#f1e05a"/>
      <text x="16" y="205" class="lang-name">Python</text>
      <text x="284" y="205" class="lang-name" text-anchor="end">1.0%</text>
      <rect x="16" y="212" width="268" height="8" rx="4" fill="#eaecef"/>
      <rect x="16" y="212" width="2.68" height="8" rx="4" fill="#3572A5"/></g>
    </svg>